<?xml version="1.0" encoding="UTF-8" standalone="no"?>
<svg xmlns="http://www.w3.org/2000/svg" viewBox="0 0 100 100" width="32" height="32">
  <!-- Purple Kettlebell SVG -->
  <style>
    .kettlebell {
      fill: #8e44ad;
    }
    .handle {
      fill: #662d91;
    }
    .highlight {
      fill: #9b59b6;
    }
  </style>
  
  <!-- Handle -->
  <path class="handle" d="M 50,10 C 40,10 35,15 35,25 L 35,35 C 25,35 25,45 35,45 L 35,55 C 25,55 25,65 35,65 L 35,75 C 35,85 40,90 50,90 C 60,90 65,85 65,75 L 65,65 C 75,65 75,55 65,55 L 65,45 C 75,45 75,35 65,35 L 65,25 C 65,15 60,10 50,10 Z" />
  
  <!-- Kettlebell Body -->
  <circle class="kettlebell" cx="50" cy="50" r="25" />
  
  <!-- Highlight -->
  <ellipse class="highlight" cx="40" cy="40" rx="8" ry="8" />
</svg>
